<mxfile host="app.diagrams.net" modified="2023-11-08T11:44:12.923Z" agent="Mozilla/5.0 (Windows NT 10.0; Win64; x64) AppleWebKit/537.36 (KHTML, like Gecko) Chrome/119.0.0.0 Safari/537.36" etag="cZLMpS5xJy_4CxVUB2M9" version="22.0.8" type="device">
  <diagram name="Page-1" id="cW_nh1LlpqJkE0RQDu8N">
    <mxGraphModel dx="1434" dy="851" grid="1" gridSize="10" guides="1" tooltips="1" connect="1" arrows="1" fold="1" page="1" pageScale="1" pageWidth="850" pageHeight="1100" math="0" shadow="0">
      <root>
        <mxCell id="0" />
        <mxCell id="1" parent="0" />
        <mxCell id="xt_PSSaajfwO621Vj3pD-49" value="" style="rounded=0;whiteSpace=wrap;html=1;fillColor=none;" parent="1" vertex="1">
          <mxGeometry x="210" y="11" width="540" height="499" as="geometry" />
        </mxCell>
        <mxCell id="xt_PSSaajfwO621Vj3pD-20" value="WebAPI Endpoint" style="image;aspect=fixed;perimeter=ellipsePerimeter;html=1;align=center;shadow=0;dashed=0;spacingTop=3;image=img/lib/active_directory/generic_server.svg;movable=1;resizable=1;rotatable=1;deletable=1;editable=1;locked=0;connectable=1;" parent="1" vertex="1">
          <mxGeometry x="385" y="210" width="58" height="103.57" as="geometry" />
        </mxCell>
        <mxCell id="xt_PSSaajfwO621Vj3pD-21" value="" style="image;sketch=0;aspect=fixed;html=1;points=[];align=center;fontSize=12;image=img/lib/mscae/Docker.svg;movable=1;resizable=1;rotatable=1;deletable=1;editable=1;locked=0;connectable=1;" parent="1" vertex="1">
          <mxGeometry x="415" y="200" width="50" height="41" as="geometry" />
        </mxCell>
        <mxCell id="xt_PSSaajfwO621Vj3pD-24" value="WebAPI Endpoint" style="image;aspect=fixed;perimeter=ellipsePerimeter;html=1;align=center;shadow=0;dashed=0;spacingTop=3;image=img/lib/active_directory/generic_server.svg;movable=1;resizable=1;rotatable=1;deletable=1;editable=1;locked=0;connectable=1;" parent="1" vertex="1">
          <mxGeometry x="587" y="210" width="58" height="103.57" as="geometry" />
        </mxCell>
        <mxCell id="xt_PSSaajfwO621Vj3pD-25" value="" style="image;sketch=0;aspect=fixed;html=1;points=[];align=center;fontSize=12;image=img/lib/mscae/Docker.svg;movable=1;resizable=1;rotatable=1;deletable=1;editable=1;locked=0;connectable=1;" parent="1" vertex="1">
          <mxGeometry x="617" y="200" width="50" height="41" as="geometry" />
        </mxCell>
        <mxCell id="xt_PSSaajfwO621Vj3pD-27" value="Redis&lt;br&gt;Pub/Sub and Chaching" style="outlineConnect=0;dashed=0;verticalLabelPosition=bottom;verticalAlign=top;align=center;html=1;shape=mxgraph.aws3.redis;fillColor=#2E73B8;gradientColor=none;" parent="1" vertex="1">
          <mxGeometry x="346" y="41" width="60" height="63" as="geometry" />
        </mxCell>
        <mxCell id="xt_PSSaajfwO621Vj3pD-29" value="Master" style="image;aspect=fixed;html=1;points=[];align=center;fontSize=12;image=img/lib/azure2/databases/Azure_Database_PostgreSQL_Server.svg;" parent="1" vertex="1">
          <mxGeometry x="465" y="40" width="48" height="64" as="geometry" />
        </mxCell>
        <mxCell id="xt_PSSaajfwO621Vj3pD-30" value="Slave" style="image;aspect=fixed;html=1;points=[];align=center;fontSize=12;image=img/lib/azure2/databases/Azure_Database_PostgreSQL_Server.svg;" parent="1" vertex="1">
          <mxGeometry x="567" y="40" width="48" height="64" as="geometry" />
        </mxCell>
        <mxCell id="xt_PSSaajfwO621Vj3pD-31" value="" style="image;sketch=0;aspect=fixed;html=1;points=[];align=center;fontSize=12;image=img/lib/mscae/Docker.svg;movable=1;resizable=1;rotatable=1;deletable=1;editable=1;locked=0;connectable=1;" parent="1" vertex="1">
          <mxGeometry x="595" y="20" width="50" height="41" as="geometry" />
        </mxCell>
        <mxCell id="xt_PSSaajfwO621Vj3pD-32" value="" style="image;sketch=0;aspect=fixed;html=1;points=[];align=center;fontSize=12;image=img/lib/mscae/Docker.svg;movable=1;resizable=1;rotatable=1;deletable=1;editable=1;locked=0;connectable=1;" parent="1" vertex="1">
          <mxGeometry x="501" y="20" width="50" height="41" as="geometry" />
        </mxCell>
        <mxCell id="xt_PSSaajfwO621Vj3pD-33" value="" style="image;sketch=0;aspect=fixed;html=1;points=[];align=center;fontSize=12;image=img/lib/mscae/Docker.svg;movable=1;resizable=1;rotatable=1;deletable=1;editable=1;locked=0;connectable=1;" parent="1" vertex="1">
          <mxGeometry x="395.4" y="20" width="50" height="41" as="geometry" />
        </mxCell>
        <mxCell id="xt_PSSaajfwO621Vj3pD-34" value="API Gateway Load Balancer" style="verticalLabelPosition=bottom;html=1;verticalAlign=top;strokeWidth=1;align=center;outlineConnect=0;dashed=0;outlineConnect=0;shape=mxgraph.aws3d.elasticLoadBalancing;fillColor=#ECECEC;strokeColor=#5E5E5E;aspect=fixed;" parent="1" vertex="1">
          <mxGeometry x="415" y="400" width="92" height="88.17" as="geometry" />
        </mxCell>
        <mxCell id="xt_PSSaajfwO621Vj3pD-37" value="WebAPI Endpoint" style="image;aspect=fixed;perimeter=ellipsePerimeter;html=1;align=center;shadow=0;dashed=0;spacingTop=3;image=img/lib/active_directory/generic_server.svg;movable=1;resizable=1;rotatable=1;deletable=1;editable=1;locked=0;connectable=1;" parent="1" vertex="1">
          <mxGeometry x="280" y="210" width="58" height="103.57" as="geometry" />
        </mxCell>
        <mxCell id="xt_PSSaajfwO621Vj3pD-38" value="" style="image;sketch=0;aspect=fixed;html=1;points=[];align=center;fontSize=12;image=img/lib/mscae/Docker.svg;movable=1;resizable=1;rotatable=1;deletable=1;editable=1;locked=0;connectable=1;" parent="1" vertex="1">
          <mxGeometry x="310" y="200" width="50" height="41" as="geometry" />
        </mxCell>
        <mxCell id="xt_PSSaajfwO621Vj3pD-39" value="" style="image;sketch=0;aspect=fixed;html=1;points=[];align=center;fontSize=12;image=img/lib/mscae/Docker.svg;movable=1;resizable=1;rotatable=1;deletable=1;editable=1;locked=0;connectable=1;" parent="1" vertex="1">
          <mxGeometry x="484.6" y="380" width="50" height="41" as="geometry" />
        </mxCell>
        <mxCell id="xt_PSSaajfwO621Vj3pD-43" value="" style="shadow=0;dashed=0;html=1;strokeColor=none;fillColor=#4495D1;labelPosition=center;verticalLabelPosition=bottom;verticalAlign=top;align=center;outlineConnect=0;shape=mxgraph.veeam.vm_linux;" parent="1" vertex="1">
          <mxGeometry x="740" y="500" width="37.2" height="35.2" as="geometry" />
        </mxCell>
        <mxCell id="xt_PSSaajfwO621Vj3pD-48" value="" style="endArrow=none;dashed=1;html=1;dashPattern=1 3;strokeWidth=2;rounded=0;" parent="1" edge="1">
          <mxGeometry width="50" height="50" relative="1" as="geometry">
            <mxPoint x="480" y="260" as="sourcePoint" />
            <mxPoint x="560" y="260" as="targetPoint" />
          </mxGeometry>
        </mxCell>
      </root>
    </mxGraphModel>
  </diagram>
</mxfile>
